<svg width="115" height="115" viewBox="0 0 115 115" fill="none" xmlns="http://www.w3.org/2000/svg">
<g clip-path="url(#clip0_9_62)">
<path d="M57.4044 50.4523C42.4815 50.504 30.4987 62.8234 30.4987 77.7466V113.644C30.4987 114.738 31.729 115.38 32.6264 114.754L54.94 99.2076C56.4783 98.1358 58.5215 98.1358 60.0598 99.2076L82.3734 114.754C83.2708 115.38 84.5011 114.738 84.5011 113.644V77.4534C84.5013 62.5093 72.3607 50.4007 57.4044 50.4523Z" fill="url(#paint0_linear_9_62)"/>
<path d="M84.5013 113.644V77.4534C84.5013 62.5091 72.3607 50.4005 57.4046 50.4523C44.5787 50.4967 33.9248 59.6034 31.1837 71.6364L31.2588 71.9711L57.6993 98.4116C58.5276 98.4484 59.3481 98.712 60.0602 99.208L82.3741 114.755C83.271 115.38 84.5013 114.738 84.5013 113.644Z" fill="url(#paint1_linear_9_62)"/>
<path d="M41.9856 55.423V108.233L36.2345 112.24V60.9542C37.8704 58.8416 39.8067 56.9743 41.9811 55.4277L41.9856 55.423Z" fill="url(#paint2_linear_9_62)"/>
<path d="M78.7655 60.8145V112.24L73.0144 108.233V55.3542C75.1888 56.8826 77.1273 58.7249 78.7655 60.8145Z" fill="url(#paint3_linear_9_62)"/>
<path d="M57.5 50.4532V98.4039C58.3954 98.4039 59.2906 98.6718 60.0598 99.2078L82.3734 114.755C83.2708 115.38 84.5011 114.738 84.5011 113.644V77.4534C84.5013 62.541 72.4123 50.4534 57.5 50.4532Z" fill="url(#paint4_linear_9_62)"/>
<path d="M82.3736 110.378L60.06 94.831C58.5217 93.7593 56.4785 93.7593 54.9402 94.831L32.6266 110.378C31.7292 111.003 30.4989 110.361 30.4989 109.267V113.644C30.4989 114.738 31.7292 115.38 32.6266 114.755L54.9402 99.2078C56.4785 98.136 58.5217 98.136 60.06 99.2078L82.3736 114.755C83.271 115.38 84.5013 114.738 84.5013 113.644V109.267C84.5013 110.361 83.271 111.003 82.3736 110.378Z" fill="url(#paint5_linear_9_62)"/>
<path d="M41.9856 55.4219V82.6999L36.2345 76.9488V60.9532C36.349 60.8066 36.4658 60.6598 36.5828 60.5132C36.7066 60.3597 36.8349 60.2039 36.9633 60.0528C37.0686 59.929 37.1741 59.8054 37.2794 59.6839C37.4947 59.4388 37.7126 59.1959 37.9369 58.9598C38.0172 58.8728 38.0995 58.788 38.182 58.7032C38.3974 58.4764 38.6197 58.2563 38.8443 58.0387C39.0641 57.8256 39.2865 57.6148 39.5156 57.4109C39.5568 57.3719 39.5981 57.3354 39.6394 57.2986C39.7562 57.1933 39.8732 57.0901 39.9923 56.9893C40.1871 56.8197 40.3842 56.6546 40.5835 56.4921C40.6775 56.4143 40.7713 56.3385 40.8676 56.263C40.9569 56.1919 41.0464 56.1232 41.1357 56.0544C41.319 55.9123 41.5024 55.7748 41.688 55.6397C41.7842 55.5664 41.8828 55.4976 41.9813 55.4266L41.9856 55.4219Z" fill="url(#paint6_linear_9_62)"/>
<path d="M78.7655 60.8145V112.24L73.0144 108.233V55.3542C75.1888 56.8826 77.1273 58.7249 78.7655 60.8145Z" fill="url(#paint7_linear_9_62)"/>
<path d="M97.8269 36.064C97.8269 16.1465 79.7719 0 57.5 0C35.2281 0 17.1731 16.1465 17.1731 36.064V44.5898C17.1731 64.5073 35.2281 80.6538 57.5 80.6538C79.7719 80.6538 97.8269 64.5073 97.8269 44.5898C97.8269 44.5618 97.8269 36.092 97.8269 36.064Z" fill="url(#paint8_linear_9_62)"/>
<path d="M97.8269 36.064C97.8269 16.1465 79.7719 0 57.5 0C35.2281 0 17.1731 16.1465 17.1731 36.064V44.5898C17.1731 64.5073 35.2281 80.6538 57.5 80.6538C79.7719 80.6538 97.8269 64.5073 97.8269 44.5898C97.8269 44.5618 97.8269 36.092 97.8269 36.064Z" fill="url(#paint9_linear_9_62)"/>
<path d="M90.7129 15.6078C83.4386 6.18001 71.2772 0 57.5 0C43.7228 0 31.5614 6.18001 24.2871 15.6078V65.0463C31.5614 74.474 43.7228 80.654 57.5 80.654C71.2772 80.654 83.4386 74.474 90.7129 65.0463V15.6078Z" fill="url(#paint10_linear_9_62)"/>
<path d="M33.8467 73.7991C40.4915 78.11 48.663 80.6538 57.5 80.6538C66.337 80.6538 74.5083 78.1098 81.1532 73.7991V6.85468C74.5083 2.54398 66.337 0 57.5 0C48.663 0 40.4917 2.54398 33.8467 6.85468V73.7991Z" fill="url(#paint11_linear_9_62)"/>
<path d="M48.3379 79.7185C51.2814 80.33 54.3483 80.6538 57.5 80.6538C60.6517 80.6538 63.7186 80.33 66.6621 79.7185V0.935333C63.7186 0.323804 60.6517 0 57.5 0C54.3483 0 51.2814 0.323804 48.3379 0.935333V79.7185Z" fill="url(#paint12_linear_9_62)"/>
<path d="M57.5 72.128C79.7719 72.128 97.8269 55.9816 97.8269 36.064C97.8269 16.1464 79.7719 0 57.5 0C35.2281 0 17.1731 16.1464 17.1731 36.064C17.1731 55.9816 35.2281 72.128 57.5 72.128Z" fill="url(#paint13_linear_9_62)"/>
<path d="M57.5 68.1059C77.2881 68.1059 93.3295 53.7603 93.3295 36.064C93.3295 18.3677 77.2881 4.02206 57.5 4.02206C37.7119 4.02206 21.6705 18.3677 21.6705 36.064C21.6705 53.7603 37.7119 68.1059 57.5 68.1059Z" fill="url(#paint14_linear_9_62)"/>
<path d="M57.5 65.0713C75.414 65.0713 89.9361 52.0843 89.9361 36.064C89.9361 20.0437 75.414 7.0567 57.5 7.0567C39.5861 7.0567 25.0639 20.0437 25.0639 36.064C25.0639 52.0843 39.5861 65.0713 57.5 65.0713Z" fill="url(#paint15_linear_9_62)"/>
<path d="M97.15 42.6679L82.5159 28.0338C82.2694 27.5231 81.7891 27.1208 81.1363 27.0277L74.3249 26.0371L59.1438 10.8932V10.893C58.8112 10.2081 58.1555 9.86224 57.5 9.86224C56.8445 9.86224 56.1888 10.2079 55.8562 10.893L49.0917 24.8131L33.8637 27.0277C33.1103 27.1352 32.5851 27.6539 32.3862 28.2769C32.184 28.9031 32.3112 29.6337 32.8625 30.1588L43.6542 40.9208C43.6774 40.9517 43.7031 40.9815 43.7289 41.0117L41.2349 55.5599C41.1078 56.2936 41.4241 56.946 41.9394 57.3309L56.7284 72.1196C56.9852 72.1239 57.2423 72.1284 57.5002 72.1284C77.2493 72.128 93.6808 59.4313 97.15 42.6679Z" fill="url(#paint16_linear_9_62)"/>
<path d="M82.6137 28.2767C82.4149 27.6537 81.8897 27.1351 81.1363 27.0275L65.9083 24.813L59.1438 10.8928C58.8112 10.208 58.1555 9.86206 57.5 9.86206C56.8445 9.86206 56.1888 10.2077 55.8562 10.8928L49.0917 24.813L33.8637 27.0275C33.1103 27.1351 32.5851 27.6537 32.3862 28.2767C32.184 28.9029 32.3112 29.6335 32.8625 30.1587L43.8017 40.5858L41.2349 55.5595C41.1078 56.2934 41.4241 56.9455 41.9394 57.3305C42.458 57.7185 43.1789 57.8392 43.8506 57.5032L57.5 50.6997L71.1496 57.5032C71.8216 57.8392 72.5422 57.7185 73.0609 57.3305C73.5761 56.9455 73.8925 56.2932 73.7653 55.5595L71.1985 40.5858L82.1377 30.1587C82.6888 29.6335 82.816 28.9029 82.6137 28.2767ZM57.5 36.2415L57.4772 36.248L57.4869 36.2383L57.5 36.2187L57.5131 36.2383L57.5228 36.248L57.5 36.2415Z" fill="url(#paint17_linear_9_62)"/>
<path d="M57.4869 36.2381L57.4772 36.2478L43.8017 40.5855L32.8625 30.1584C32.3114 29.6333 32.184 28.9027 32.3863 28.2765L57.4869 36.2381Z" fill="url(#paint18_linear_9_62)"/>
<path d="M57.4772 36.248L41.9392 57.3306C41.4239 56.9457 41.1075 56.2934 41.2347 55.5596L43.8015 40.586L57.4772 36.248Z" fill="url(#paint19_linear_9_62)"/>
<path d="M73.0609 57.3304C72.5422 57.7185 71.8216 57.8391 71.1496 57.5031L57.5 50.6996V36.2412L57.5228 36.2478L73.0609 57.3304Z" fill="url(#paint20_linear_9_62)"/>
<path d="M57.5 36.2415V50.6999L43.8504 57.5034C43.1784 57.8394 42.4578 57.7187 41.9391 57.3307L57.4772 36.248L57.5 36.2415Z" fill="url(#paint21_linear_9_62)"/>
<path d="M73.0609 57.3304L57.5228 36.2477L71.1983 40.5855L73.7651 55.5592C73.8925 56.2934 73.5761 56.9457 73.0609 57.3304Z" fill="url(#paint22_linear_9_62)"/>
<path d="M57.5 36.2187L57.4869 36.2383L32.3863 28.2769C32.5851 27.6539 33.1103 27.1353 33.8637 27.0277L49.0917 24.8132L57.5 36.2187Z" fill="url(#paint23_linear_9_62)"/>
<path d="M65.9083 24.813L57.5 36.2187V9.86206C58.1555 9.86206 58.8112 10.2077 59.1438 10.8928L65.9083 24.813Z" fill="url(#paint24_linear_9_62)"/>
<path d="M57.5 9.86206V36.2185L49.0917 24.813L55.8562 10.8928C56.1888 10.2077 56.8445 9.86206 57.5 9.86206Z" fill="url(#paint25_linear_9_62)"/>
<path d="M82.6137 28.2767L57.5131 36.2381L57.5 36.2187L65.9083 24.8132L81.1363 27.0277C81.8897 27.1353 82.4149 27.6537 82.6137 28.2767Z" fill="url(#paint26_linear_9_62)"/>
<path d="M82.1377 30.1586L71.1985 40.5858L57.523 36.248L57.5133 36.2383L82.614 28.2769C82.816 28.9029 82.6888 29.6335 82.1377 30.1586Z" fill="url(#paint27_linear_9_62)"/>
<path d="M78.3606 29.2089C78.1953 28.6914 77.7592 28.2607 77.1332 28.1711L64.4841 26.3316L58.8654 14.7689C58.5889 14.2 58.0446 13.9127 57.5 13.9127C56.9555 13.9127 56.4109 14.2 56.1347 14.7689L50.5159 26.3316L37.8668 28.1711C37.2408 28.2607 36.8047 28.6914 36.6395 29.2089C36.4715 29.7291 36.5772 30.3358 37.035 30.7719L46.1216 39.433L43.9895 51.8708C43.8838 52.4803 44.1467 53.0222 44.5747 53.3419C45.0054 53.6644 45.6043 53.7645 46.1624 53.4856L57.5 47.8343L68.8379 53.4856C69.396 53.7647 69.9947 53.6644 70.4256 53.3419C70.8535 53.0222 71.1165 52.4803 71.0107 51.8708L68.8787 39.433L77.9653 30.7719C78.4228 30.3358 78.5286 29.7291 78.3606 29.2089ZM57.5 35.8245L57.4811 35.8299L57.4892 35.8218L57.5 35.8056L57.5108 35.8218L57.519 35.8299L57.5 35.8245Z" fill="url(#paint28_linear_9_62)"/>
<path d="M57.5 61.9963C73.5149 61.9963 86.4976 50.386 86.4976 36.064C86.4976 21.742 73.5149 10.1317 57.5 10.1317C41.4851 10.1317 28.5024 21.742 28.5024 36.064C28.5024 50.386 41.4851 61.9963 57.5 61.9963Z" fill="url(#paint29_linear_9_62)"/>
</g>
<defs>
<linearGradient id="paint0_linear_9_62" x1="42.385" y1="71.528" x2="84.4783" y2="126.284" gradientUnits="userSpaceOnUse">
<stop stop-color="#4A98F7"/>
<stop offset="1" stop-color="#0469BC"/>
</linearGradient>
<linearGradient id="paint1_linear_9_62" x1="59.494" y1="97.3477" x2="57.6132" y2="70.8269" gradientUnits="userSpaceOnUse">
<stop stop-color="#0469BC" stop-opacity="0"/>
<stop offset="1" stop-color="#0469BC"/>
</linearGradient>
<linearGradient id="paint2_linear_9_62" x1="31.0216" y1="73.3102" x2="55.3003" y2="104.892" gradientUnits="userSpaceOnUse">
<stop stop-color="#F9F7FC"/>
<stop offset="1" stop-color="#F0DDFC"/>
</linearGradient>
<linearGradient id="paint3_linear_9_62" x1="66.0434" y1="71.7149" x2="94.217" y2="108.364" gradientUnits="userSpaceOnUse">
<stop stop-color="#F9F7FC"/>
<stop offset="1" stop-color="#F0DDFC"/>
</linearGradient>
<linearGradient id="paint4_linear_9_62" x1="68.6812" y1="79.3644" x2="23.1739" y2="46.2938" gradientUnits="userSpaceOnUse">
<stop stop-color="#18CFFC" stop-opacity="0"/>
<stop offset="1" stop-color="#65E1DC"/>
</linearGradient>
<linearGradient id="paint5_linear_9_62" x1="57.5" y1="109.646" x2="57.5" y2="71.1137" gradientUnits="userSpaceOnUse">
<stop stop-color="#0469BC" stop-opacity="0"/>
<stop offset="1" stop-color="#0469BC"/>
</linearGradient>
<linearGradient id="paint6_linear_9_62" x1="39.1099" y1="97.7286" x2="39.1099" y2="69.3098" gradientUnits="userSpaceOnUse">
<stop stop-color="#F0DDFC" stop-opacity="0"/>
<stop offset="0.2889" stop-color="#C8B7E0" stop-opacity="0.289"/>
<stop offset="0.5915" stop-color="#A595C8" stop-opacity="0.592"/>
<stop offset="0.8395" stop-color="#8F81B8" stop-opacity="0.84"/>
<stop offset="1" stop-color="#8779B3"/>
</linearGradient>
<linearGradient id="paint7_linear_9_62" x1="75.8901" y1="97.7286" x2="75.8901" y2="69.3098" gradientUnits="userSpaceOnUse">
<stop stop-color="#F0DDFC" stop-opacity="0"/>
<stop offset="0.2889" stop-color="#C8B7E0" stop-opacity="0.289"/>
<stop offset="0.5915" stop-color="#A595C8" stop-opacity="0.592"/>
<stop offset="0.8395" stop-color="#8F81B8" stop-opacity="0.84"/>
<stop offset="1" stop-color="#8779B3"/>
</linearGradient>
<linearGradient id="paint8_linear_9_62" x1="17.1731" y1="40.3269" x2="97.8269" y2="40.3269" gradientUnits="userSpaceOnUse">
<stop stop-color="#FFDA45"/>
<stop offset="1" stop-color="#FFA425"/>
</linearGradient>
<linearGradient id="paint9_linear_9_62" x1="75.5863" y1="46.1901" x2="104.369" y2="55.5207" gradientUnits="userSpaceOnUse">
<stop stop-color="#FFDA45" stop-opacity="0"/>
<stop offset="0.5194" stop-color="#D9874F" stop-opacity="0.519"/>
<stop offset="1" stop-color="#B53759"/>
</linearGradient>
<linearGradient id="paint10_linear_9_62" x1="53.6613" y1="32.9448" x2="86.8077" y2="96.6877" gradientUnits="userSpaceOnUse">
<stop stop-color="#FFDA45" stop-opacity="0"/>
<stop offset="0.5194" stop-color="#D9874F" stop-opacity="0.519"/>
<stop offset="1" stop-color="#B53759"/>
</linearGradient>
<linearGradient id="paint11_linear_9_62" x1="56.2593" y1="52.9115" x2="52.3444" y2="92.6206" gradientUnits="userSpaceOnUse">
<stop stop-color="#FFDA45" stop-opacity="0"/>
<stop offset="0.5194" stop-color="#D9874F" stop-opacity="0.519"/>
<stop offset="1" stop-color="#B53759"/>
</linearGradient>
<linearGradient id="paint12_linear_9_62" x1="49.5127" y1="54.9353" x2="37.4104" y2="77.0699" gradientUnits="userSpaceOnUse">
<stop stop-color="#FFDA45" stop-opacity="0"/>
<stop offset="0.5194" stop-color="#D9874F" stop-opacity="0.519"/>
<stop offset="1" stop-color="#B53759"/>
</linearGradient>
<linearGradient id="paint13_linear_9_62" x1="17.1731" y1="36.064" x2="97.8269" y2="36.064" gradientUnits="userSpaceOnUse">
<stop stop-color="#FFDA45"/>
<stop offset="1" stop-color="#FFA425"/>
</linearGradient>
<linearGradient id="paint14_linear_9_62" x1="93.3295" y1="36.064" x2="21.6707" y2="36.064" gradientUnits="userSpaceOnUse">
<stop stop-color="#FFDA45"/>
<stop offset="1" stop-color="#FFA425"/>
</linearGradient>
<linearGradient id="paint15_linear_9_62" x1="25.0639" y1="36.064" x2="89.9361" y2="36.064" gradientUnits="userSpaceOnUse">
<stop stop-color="#FFDA45"/>
<stop offset="1" stop-color="#FFA425"/>
</linearGradient>
<linearGradient id="paint16_linear_9_62" x1="100.583" y1="76.5631" x2="19.4708" y2="6.90765" gradientUnits="userSpaceOnUse">
<stop stop-color="#FFDA45" stop-opacity="0"/>
<stop offset="0.5194" stop-color="#D9874F" stop-opacity="0.519"/>
<stop offset="1" stop-color="#B53759"/>
</linearGradient>
<linearGradient id="paint17_linear_9_62" x1="47.7036" y1="27.5849" x2="85.8906" y2="67.1481" gradientUnits="userSpaceOnUse">
<stop stop-color="#FFDA45"/>
<stop offset="1" stop-color="#FCB37E"/>
</linearGradient>
<linearGradient id="paint18_linear_9_62" x1="41.8557" y1="29.6605" x2="65.6068" y2="54.9951" gradientUnits="userSpaceOnUse">
<stop stop-color="#FCB37E" stop-opacity="0"/>
<stop offset="1" stop-color="#FF7044"/>
</linearGradient>
<linearGradient id="paint19_linear_9_62" x1="41.2065" y1="46.7892" x2="57.4772" y2="46.7892" gradientUnits="userSpaceOnUse">
<stop stop-color="#FFDA45"/>
<stop offset="1" stop-color="#FCB37E"/>
</linearGradient>
<linearGradient id="paint20_linear_9_62" x1="53.6182" y1="39.0878" x2="81.4157" y2="70.4039" gradientUnits="userSpaceOnUse">
<stop stop-color="#FCB37E" stop-opacity="0"/>
<stop offset="1" stop-color="#FF7044"/>
</linearGradient>
<linearGradient id="paint21_linear_9_62" x1="37.6981" y1="47.4043" x2="73.4126" y2="46.1727" gradientUnits="userSpaceOnUse">
<stop stop-color="#FCB37E" stop-opacity="0"/>
<stop offset="1" stop-color="#FF7044"/>
</linearGradient>
<linearGradient id="paint22_linear_9_62" x1="69.6223" y1="61.7908" x2="60.4738" y2="21.1503" gradientUnits="userSpaceOnUse">
<stop stop-color="#FFDA45"/>
<stop offset="1" stop-color="#FCB37E"/>
</linearGradient>
<linearGradient id="paint23_linear_9_62" x1="43.7368" y1="27.0329" x2="49.1907" y2="50.6081" gradientUnits="userSpaceOnUse">
<stop stop-color="#FFDA45"/>
<stop offset="1" stop-color="#FCB37E"/>
</linearGradient>
<linearGradient id="paint24_linear_9_62" x1="66.9595" y1="26.7145" x2="33.1802" y2="13.3436" gradientUnits="userSpaceOnUse">
<stop stop-color="#FCB37E" stop-opacity="0"/>
<stop offset="1" stop-color="#FF7044"/>
</linearGradient>
<linearGradient id="paint25_linear_9_62" x1="52.2939" y1="15.6269" x2="69.7112" y2="45.3596" gradientUnits="userSpaceOnUse">
<stop stop-color="#FCB37E" stop-opacity="0"/>
<stop offset="1" stop-color="#FF7044"/>
</linearGradient>
<linearGradient id="paint26_linear_9_62" x1="73.9013" y1="26.8636" x2="41.5294" y2="55.5407" gradientUnits="userSpaceOnUse">
<stop stop-color="#FCB37E" stop-opacity="0"/>
<stop offset="1" stop-color="#FF7044"/>
</linearGradient>
<linearGradient id="paint27_linear_9_62" x1="68.0836" y1="38.5182" x2="79.3435" y2="6.14641" gradientUnits="userSpaceOnUse">
<stop stop-color="#FCB37E" stop-opacity="0"/>
<stop offset="1" stop-color="#FF7044"/>
</linearGradient>
<linearGradient id="paint28_linear_9_62" x1="58.1612" y1="36.5107" x2="47.221" y2="20.7081" gradientUnits="userSpaceOnUse">
<stop stop-color="#FFDA45" stop-opacity="0"/>
<stop offset="1" stop-color="#FFEE83"/>
</linearGradient>
<linearGradient id="paint29_linear_9_62" x1="55.5116" y1="33.3058" x2="34.2023" y2="3.74809" gradientUnits="userSpaceOnUse">
<stop stop-color="#FFDA45" stop-opacity="0"/>
<stop offset="1" stop-color="#FCEE21"/>
</linearGradient>
<clipPath id="clip0_9_62">
<rect width="115" height="115" fill="white"/>
</clipPath>
</defs>
</svg>
