<svg width="115" height="115" viewBox="0 0 115 115" fill="none" xmlns="http://www.w3.org/2000/svg">
<g clip-path="url(#clip0_9_93)">
<path d="M111.809 96.4313H3.19114C1.42871 96.4313 0 95.0026 0 93.2402V36.5459C0 34.7834 1.42871 33.3547 3.19114 33.3547H111.809C113.571 33.3547 115 34.7834 115 36.5459V93.2402C115 95.0026 113.571 96.4313 111.809 96.4313Z" fill="url(#paint0_linear_9_93)"/>
<path d="M109.448 94.2445H5.55246C3.89015 94.2445 2.54285 92.897 2.54285 91.2349V38.5514C2.54285 36.8891 3.89038 35.5417 5.55246 35.5417H109.448C111.11 35.5417 112.457 36.8893 112.457 38.5514V91.2347C112.457 92.897 111.11 94.2445 109.448 94.2445Z" fill="url(#paint1_linear_9_93)"/>
<path d="M105.355 52.6452C100.028 52.6452 95.7098 48.3268 95.7098 43.0001C95.7098 42.7814 95.7172 42.5642 95.7319 42.3493C95.8018 41.3168 94.9866 40.4412 93.9518 40.4412H21.0484C20.0136 40.4412 19.1985 41.317 19.2684 42.3493C19.283 42.5644 19.2902 42.7814 19.2902 43.0001C19.2902 48.3271 14.9719 52.6452 9.64512 52.6452C9.63881 52.6452 9.63249 52.6452 9.62618 52.6452C8.62568 52.6432 7.80444 53.4306 7.80444 54.4311V75.355C7.80444 76.3555 8.62568 77.1429 9.62618 77.1411H9.64512C14.9721 77.1411 19.2902 81.4595 19.2902 86.7862C19.2902 87.005 19.2828 87.2221 19.2684 87.437C19.1985 88.4695 20.0136 89.3451 21.0484 89.3451H93.9514C94.9862 89.3451 95.8013 88.4695 95.7314 87.437C95.7168 87.2219 95.7093 87.005 95.7093 86.7862C95.7093 81.4592 100.028 77.1411 105.354 77.1411H105.373C106.374 77.1431 107.195 76.3557 107.195 75.355V54.4311C107.195 53.4306 106.374 52.6432 105.373 52.6452C105.367 52.6452 105.361 52.6452 105.355 52.6452Z" fill="url(#paint2_linear_9_93)"/>
<path d="M57.5 86.8652C69.6348 86.8652 79.472 77.028 79.472 64.8932C79.472 52.7584 69.6348 42.9212 57.5 42.9212C45.3652 42.9212 35.528 52.7584 35.528 64.8932C35.528 77.028 45.3652 86.8652 57.5 86.8652Z" fill="url(#paint3_linear_9_93)"/>
<path d="M66.1275 51.6276C65.7931 51.1047 65.1462 50.6697 64.1833 50.3234C63.1454 49.9508 62.0391 49.6976 60.8673 49.5587C60.8043 49.5188 60.7405 49.4838 60.6756 49.4541L58.9398 47.594C58.6674 47.394 58.3736 47.2932 58.0588 47.2932C57.7149 47.2932 57.4209 47.394 57.1776 47.594C56.9338 47.7949 56.8123 48.0238 56.8123 48.2818V49.528C54.4915 49.7858 52.55 50.5594 50.9885 51.8488C49.4266 53.1381 48.6461 55.028 48.6461 57.5167C48.6461 58.4031 48.7463 59.211 48.9469 59.9403C49.147 60.6695 49.4768 61.3056 49.9355 61.8488C50.3935 62.392 50.8305 62.8568 51.2463 63.243C51.2492 63.2457 51.2526 63.2484 51.2555 63.2512C51.2555 63.2512 56.6598 68.6559 56.6628 68.6584C56.713 68.7121 56.7622 68.7624 56.8118 68.814V76.0031C55.5419 75.9172 54.4239 75.5886 53.4567 75.0166C52.4898 74.4452 51.7304 73.9092 51.1768 73.4081C50.6235 72.9078 50.177 72.6572 49.8372 72.6572C49.3242 72.6572 48.8689 72.9292 48.4698 73.4726C48.0709 74.0158 47.8723 74.5593 47.8723 75.1025C47.8723 75.9711 48.3616 76.8268 49.3404 77.6706L68.1012 96.4314H110.931L66.1275 51.6276Z" fill="url(#paint4_linear_9_93)"/>
<path d="M47.8727 75.1025C47.8727 74.5592 48.0713 74.016 48.4702 73.4726C48.8691 72.9294 49.3244 72.6575 49.8376 72.6575C50.1774 72.6575 50.6241 72.908 51.1772 73.4083C51.7306 73.9094 52.4903 74.4452 53.4572 75.0168C54.4243 75.5891 55.5423 75.9174 56.8122 76.0033V65.9241C55.9527 65.6098 55.2931 65.3593 54.8351 65.1732C54.3765 64.9879 53.7674 64.7159 53.0087 64.3585C52.2492 64.0014 51.6614 63.6293 51.2465 63.243C50.8307 62.857 50.3937 62.3923 49.9357 61.849C49.477 61.3058 49.1472 60.6697 48.9471 59.9405C48.7465 59.2113 48.6463 58.4033 48.6463 57.5169C48.6463 55.0282 49.4265 53.1384 50.9887 51.849C52.55 50.5597 54.4915 49.786 56.8122 49.5283V48.2818C56.8122 48.0238 56.9338 47.7949 57.1775 47.594C57.4206 47.394 57.7149 47.2932 58.0588 47.2932C58.3735 47.2932 58.6671 47.394 58.9397 47.594C59.2117 47.7947 59.3481 48.0238 59.3481 48.2818V49.4421C61.0954 49.4999 62.7072 49.7932 64.1833 50.3231C65.6587 50.8537 66.3967 51.5911 66.3967 52.5365C66.3967 53.0522 66.2229 53.5896 65.8763 54.1483C65.5297 54.7071 65.067 54.9865 64.4895 54.9865C64.2613 54.9865 63.6333 54.7434 62.6073 54.2559C61.5805 53.7691 60.494 53.4822 59.3483 53.3963V62.1063C60.488 62.5354 61.4355 62.9429 62.1902 63.3292C62.9449 63.7154 63.7436 64.2512 64.5842 64.9376C65.4251 65.6238 66.0589 66.4887 66.486 67.5323C66.9131 68.5759 67.1273 69.7987 67.1273 71.1997C67.1273 73.7597 66.429 75.7945 65.0327 77.3039C63.636 78.8136 61.7415 79.741 59.3481 80.0862V81.5219C59.3481 81.7752 59.2117 82.0002 58.9397 82.1975C58.6674 82.3941 58.3738 82.4929 58.0588 82.4929C57.7149 82.4929 57.4206 82.3941 57.1775 82.198C56.9338 82.0004 56.8122 81.7756 56.8122 81.5224V80.215C54.3197 80.1861 52.2062 79.6161 50.4728 78.504C48.739 77.3919 47.8727 76.2583 47.8727 75.1025ZM52.9013 57.0883C52.9013 58.2038 53.2484 59.0546 53.9436 59.6401C54.6378 60.2264 55.6801 60.7771 57.0702 61.2914V53.478C54.2906 53.8218 52.9013 55.0253 52.9013 57.0883ZM59.0901 75.9172C61.6111 75.4599 62.8723 74.0442 62.8723 71.6709C62.8723 70.4132 62.5424 69.4266 61.8837 68.7121C61.2242 67.9975 60.2936 67.3824 59.0901 66.8673V75.9172Z" fill="url(#paint5_linear_9_93)"/>
<path d="M24.1132 67.3043H12.5686C12.0653 67.3043 11.6574 66.8964 11.6574 66.3931V63.393C11.6574 62.8897 12.0653 62.4818 12.5686 62.4818H24.1132C24.6165 62.4818 25.0244 62.8897 25.0244 63.393V66.3931C25.0244 66.8964 24.6165 67.3043 24.1132 67.3043Z" fill="#4AB272"/>
<path d="M30.6621 67.3043H28.6715C28.1682 67.3043 27.7603 66.8964 27.7603 66.3931V63.393C27.7603 62.8897 28.1682 62.4818 28.6715 62.4818H30.6621C31.1654 62.4818 31.5733 62.8897 31.5733 63.393V66.3931C31.5733 66.8964 31.1654 67.3043 30.6621 67.3043Z" fill="#4AB272"/>
<path d="M91.5524 67.3043H84.3378C83.8345 67.3043 83.4266 66.8964 83.4266 66.3931V63.393C83.4266 62.8897 83.8345 62.4818 84.3378 62.4818H91.5524C92.0557 62.4818 92.4636 62.8897 92.4636 63.393V66.3931C92.4636 66.8964 92.0557 67.3043 91.5524 67.3043Z" fill="#4AB272"/>
<path d="M102.431 67.3043H96.0297C95.5264 67.3043 95.1185 66.8964 95.1185 66.3931V63.393C95.1185 62.8897 95.5264 62.4818 96.0297 62.4818H102.431C102.935 62.4818 103.343 62.8897 103.343 63.393V66.3931C103.343 66.8964 102.934 67.3043 102.431 67.3043Z" fill="#4AB272"/>
<path d="M39.0414 33.3547H6.84048L6.10944 34.0858C4.45795 35.7373 5.13803 38.3552 7.01794 39.2159C7.32777 39.8757 10.8768 43.4508 11.5253 43.7744L11.5237 59.9403C11.5237 60.1901 11.5638 60.3851 11.6378 60.5371C11.8116 60.8939 36.9743 85.6581 47.93 96.4313H102.118L39.0414 33.3547Z" fill="url(#paint6_linear_9_93)"/>
<path d="M34.3516 42.6727L34.35 59.938C34.3498 61.2039 33.3238 61.0614 32.0579 61.0614L13.816 61.0632C12.5501 61.0634 11.5239 61.2059 11.5241 59.9403L11.5257 42.6749C11.5259 40.9227 10.1053 39.5021 8.35305 39.5023C5.52608 39.5025 4.11091 36.085 6.10988 34.0858L20.6968 19.4982C21.9361 18.2589 23.9452 18.2586 25.1841 19.4977L39.7688 34.0824C41.7675 36.0812 40.3515 39.4989 37.5247 39.4994C35.7724 39.4996 34.3516 40.9204 34.3516 42.6727Z" fill="url(#paint7_linear_9_93)"/>
<path d="M14.1046 58.4824L14.1062 42.6744C14.1064 39.5018 11.5257 36.9208 8.35282 36.9213C8.09012 36.9213 7.90612 36.7982 7.80578 36.5558C7.70521 36.3131 7.74828 36.0962 7.93408 35.9104L22.5215 21.3228C22.6649 21.1793 22.8284 21.1494 22.9402 21.1494C23.0521 21.1494 23.2156 21.1793 23.359 21.3228L37.9437 35.9077C38.1295 36.0933 38.1725 36.3104 38.072 36.553C37.9714 36.7957 37.7874 36.9188 37.5249 36.9188C34.3523 36.919 31.7709 39.5004 31.7704 42.6731L31.7688 58.4808L14.1046 58.4824Z" fill="url(#paint8_linear_9_93)"/>
<path d="M32.0577 61.0616C33.3236 61.0614 34.3498 61.2039 34.3498 59.9382L34.3514 42.6729C34.3516 40.9206 35.7722 39.4998 37.5247 39.4996C40.3515 39.4994 41.7675 36.0814 39.7688 34.0826L25.1841 19.4979C24.5647 18.8785 23.7524 18.5687 22.9405 18.5689L22.9364 61.0628L32.0577 61.0616Z" fill="url(#paint9_linear_9_93)"/>
</g>
<defs>
<linearGradient id="paint0_linear_9_93" x1="51.4573" y1="49.6056" x2="83.6999" y2="131.176" gradientUnits="userSpaceOnUse">
<stop stop-color="#4AB272"/>
<stop offset="1" stop-color="#077565"/>
</linearGradient>
<linearGradient id="paint1_linear_9_93" x1="62.3498" y1="75.3254" x2="0.345005" y2="-58.0538" gradientUnits="userSpaceOnUse">
<stop stop-color="#92F37F" stop-opacity="0"/>
<stop offset="1" stop-color="#FFEE83"/>
</linearGradient>
<linearGradient id="paint2_linear_9_93" x1="53.5178" y1="52.8139" x2="71.4768" y2="107.289" gradientUnits="userSpaceOnUse">
<stop stop-color="#92F37F"/>
<stop offset="1" stop-color="#4AB272"/>
</linearGradient>
<linearGradient id="paint3_linear_9_93" x1="74.3543" y1="75.8484" x2="8.23309" y2="32.8695" gradientUnits="userSpaceOnUse">
<stop stop-color="#92F37F"/>
<stop offset="1" stop-color="#4AB272"/>
</linearGradient>
<linearGradient id="paint4_linear_9_93" x1="72.9964" y1="76.1857" x2="26.5156" y2="55.6093" gradientUnits="userSpaceOnUse">
<stop stop-color="#4AB272" stop-opacity="0"/>
<stop offset="1" stop-color="#009245"/>
</linearGradient>
<linearGradient id="paint5_linear_9_93" x1="55.4119" y1="63.0108" x2="73.4164" y2="75.1363" gradientUnits="userSpaceOnUse">
<stop stop-color="#4AB272"/>
<stop offset="1" stop-color="#077565"/>
</linearGradient>
<linearGradient id="paint6_linear_9_93" x1="51.9207" y1="70.0413" x2="18.9991" y2="13.9696" gradientUnits="userSpaceOnUse">
<stop stop-color="#4AB272" stop-opacity="0"/>
<stop offset="1" stop-color="#009245"/>
</linearGradient>
<linearGradient id="paint7_linear_9_93" x1="13.8758" y1="36.7775" x2="39.7968" y2="55.4819" gradientUnits="userSpaceOnUse">
<stop stop-color="#FFDA45"/>
<stop offset="1" stop-color="#FFA425"/>
</linearGradient>
<linearGradient id="paint8_linear_9_93" x1="27.4113" y1="43.9645" x2="-2.07092" y2="30.0993" gradientUnits="userSpaceOnUse">
<stop stop-color="#FFDA45" stop-opacity="0"/>
<stop offset="1" stop-color="#FFEE83"/>
</linearGradient>
<linearGradient id="paint9_linear_9_93" x1="30.7343" y1="36.3601" x2="3.22089" y2="77.3707" gradientUnits="userSpaceOnUse">
<stop stop-color="#FFDA45" stop-opacity="0"/>
<stop offset="1" stop-color="#B53759"/>
</linearGradient>
<clipPath id="clip0_9_93">
<rect width="115" height="115" fill="white"/>
</clipPath>
</defs>
</svg>
