<svg width="115" height="115" viewBox="0 0 115 115" fill="none" xmlns="http://www.w3.org/2000/svg">
<path d="M108.251 105.51H6.74884C3.02167 105.51 0 102.488 0 98.7613V28.0336C0 24.3062 3.02167 21.2847 6.74884 21.2847H108.251C111.978 21.2847 115 24.3064 115 28.0336V98.7613C115 102.488 111.978 105.51 108.251 105.51Z" fill="url(#paint0_linear_19_0)"/>
<path d="M5.83086 58.5404L52.8005 105.51H108.251C111.978 105.51 115 102.488 115 98.7612V28.0335C115 26.6258 114.568 25.3191 113.831 24.2373C113.761 24.1338 113.686 24.0329 113.611 23.9341C113.594 23.913 113.578 23.8921 113.561 23.8715C113.499 23.7922 113.435 23.714 113.369 23.6374C113.35 23.6152 113.33 23.5925 113.311 23.5703C113.24 23.4894 113.166 23.4101 113.091 23.3328C113.079 23.3203 113.067 23.307 113.054 23.2942C112.876 23.1134 112.687 22.9429 112.489 22.783C112.466 22.7641 112.442 22.7459 112.419 22.7273C112.343 22.6678 112.266 22.6098 112.188 22.5537C112.16 22.5337 112.132 22.5135 112.104 22.4939C112.022 22.4371 111.939 22.3823 111.855 22.3288C111.833 22.3147 111.811 22.2996 111.788 22.2859C111.68 22.2188 111.569 22.1543 111.456 22.0934C111.454 22.0923 111.452 22.0914 111.45 22.0903C111.343 22.0324 111.233 21.978 111.123 21.9259C111.091 21.9108 111.058 21.8967 111.026 21.8821C110.943 21.8446 110.859 21.8086 110.774 21.7743C110.737 21.7592 110.699 21.7442 110.661 21.7296C110.575 21.6966 110.488 21.6658 110.4 21.6361C110.367 21.6249 110.334 21.613 110.3 21.602C110.179 21.5634 110.057 21.5274 109.933 21.4955C109.927 21.4942 109.922 21.4933 109.917 21.4919C109.799 21.4621 109.68 21.436 109.56 21.4124C109.521 21.4048 109.481 21.3983 109.441 21.3913C109.353 21.3756 109.265 21.3612 109.175 21.3491C109.13 21.343 109.085 21.3372 109.041 21.332C108.951 21.3215 108.86 21.3134 108.769 21.3064C108.728 21.3033 108.688 21.2995 108.647 21.2972C108.516 21.2896 108.384 21.2849 108.251 21.2849H6.74884C3.02167 21.2846 0 24.3063 0 28.0337V45.8506C0 50.9263 2.26271 55.4708 5.83086 58.5404Z" fill="url(#paint1_linear_19_0)"/>
<path d="M37.6584 23.8941H35.7688C34.3028 23.8941 33.1144 22.7055 33.1144 21.2397V19.3501C33.1144 17.884 34.303 16.6956 35.7688 16.6956H37.6584C39.1245 16.6956 40.3129 17.8843 40.3129 19.3501V21.2397C40.3129 22.7057 39.1245 23.8941 37.6584 23.8941Z" fill="url(#paint2_linear_19_0)"/>
<path d="M79.2312 23.8941H77.3415C75.8753 23.8941 74.6871 22.7055 74.6871 21.2397V19.3501C74.6871 17.884 75.8757 16.6956 77.3415 16.6956H79.2312C80.6972 16.6956 81.8856 17.8843 81.8856 19.3501V21.2397C81.8858 22.7057 80.6972 23.8941 79.2312 23.8941Z" fill="url(#paint3_linear_19_0)"/>
<path d="M108.251 21.2847H6.74884C3.02167 21.2847 0 24.3064 0 28.0338V45.8507C0 55.0945 7.49342 62.5877 16.737 62.5877H98.2628C107.507 62.5877 115 55.0943 115 45.8507V28.0338C115 24.3062 111.978 21.2847 108.251 21.2847Z" fill="url(#paint4_linear_19_0)"/>
<path d="M37.8393 57.8796C37.1637 57.1258 36.1857 56.6487 35.0937 56.6487H25.9154C23.878 56.6487 22.226 58.3005 22.226 60.338V64.1175C22.226 65.2093 22.7031 66.1875 23.4569 66.8631L37.8148 81.221C38.4904 81.9748 39.4684 82.4519 40.5604 82.4519H49.7389C51.7763 82.4519 53.4281 80.8001 53.4281 78.7624V74.9829C53.4281 73.8911 52.951 72.9129 52.1972 72.2373L37.8393 57.8796Z" fill="url(#paint5_linear_19_0)"/>
<path d="M32.6387 63.8641L37.8743 61.6975C38.4246 61.4697 38.7833 60.9331 38.7833 60.3377C38.7833 58.3003 37.1316 56.6485 35.0941 56.6485H25.9157C23.8783 56.6485 22.2263 58.3003 22.2263 60.3379C22.2263 60.9331 22.585 61.47 23.1353 61.6977L28.3709 63.8643C29.7372 64.4296 31.2722 64.4296 32.6387 63.8641Z" fill="url(#paint6_linear_19_0)"/>
<path d="M35.0939 67.8064H25.9154C23.878 67.8064 22.226 66.1546 22.226 64.1169V60.3374C22.226 58.3 23.8778 56.648 25.9154 56.648H35.0939C37.1313 56.648 38.7831 58.2998 38.7831 60.3374V64.1169C38.7831 66.1548 37.1315 67.8064 35.0939 67.8064Z" fill="url(#paint7_linear_19_0)"/>
<path d="M22.7897 61.4931L29.1031 67.8064H35.0938C37.1313 67.8064 38.7831 66.1547 38.7831 64.117V60.3375C38.7831 59.3793 38.4149 58.5094 37.8159 57.8535L37.8157 57.8533C37.7317 57.7612 37.6429 57.6736 37.5502 57.5903C37.5495 57.5899 37.5491 57.5892 37.5484 57.5887C37.4579 57.5079 37.3635 57.4315 37.2656 57.3599C37.2611 57.3565 37.2568 57.3531 37.2523 57.35C37.1591 57.2824 37.0623 57.2197 36.963 57.1609C36.9527 57.1548 36.9428 57.1483 36.9323 57.1422C36.8391 57.0883 36.7427 57.0393 36.6445 56.9935C36.627 56.9854 36.6097 56.9762 36.5918 56.9681C36.5003 56.9273 36.4062 56.8918 36.311 56.8583C36.2856 56.8493 36.2607 56.8388 36.2349 56.8304C36.1448 56.801 36.0527 56.7774 35.9597 56.755C35.9278 56.7473 35.897 56.7375 35.8647 56.7307C35.7719 56.711 35.6774 56.6973 35.5824 56.6847C35.5491 56.6804 35.5172 56.6732 35.4838 56.6696C35.3557 56.6562 35.2257 56.6487 35.0938 56.6487H25.915C23.8775 56.6487 22.2255 58.3005 22.2255 60.3382C22.2262 60.7964 22.4405 61.2189 22.7897 61.4931Z" fill="url(#paint8_linear_19_0)"/>
<path d="M32.6387 63.8641L37.8743 61.6975C38.4246 61.4697 38.7833 60.9331 38.7833 60.3377C38.7833 58.3003 37.1316 56.6485 35.0941 56.6485H25.9157C23.8783 56.6485 22.2263 58.3003 22.2263 60.3379C22.2263 60.9331 22.585 61.47 23.1353 61.6977L28.3709 63.8643C29.7372 64.4296 31.2722 64.4296 32.6387 63.8641Z" fill="url(#paint9_linear_19_0)"/>
<path d="M91.83 57.8796C91.1544 57.1258 90.1764 56.6487 89.0844 56.6487H79.9059C77.8685 56.6487 76.2165 58.3005 76.2165 60.338V64.1175C76.2165 65.2093 76.6936 66.1875 77.4474 66.8631L91.8053 81.221C92.4809 81.9748 93.4589 82.4519 94.5509 82.4519H103.729C105.767 82.4519 107.419 80.8001 107.419 78.7624V74.9829C107.419 73.8911 106.941 72.9129 106.188 72.2373L91.83 57.8796Z" fill="url(#paint10_linear_19_0)"/>
<path d="M86.6294 63.8641L91.865 61.6975C92.4153 61.4697 92.774 60.9331 92.774 60.3377C92.774 58.3003 91.1222 56.6485 89.0848 56.6485H79.9064C77.8689 56.6485 76.2169 58.3003 76.2169 60.3379C76.2169 60.9331 76.5756 61.47 77.1259 61.6977L82.3616 63.8643C83.7276 64.4296 85.2628 64.4296 86.6294 63.8641Z" fill="url(#paint11_linear_19_0)"/>
<path d="M89.0844 67.8064H79.9059C77.8685 67.8064 76.2165 66.1546 76.2165 64.1169V60.3374C76.2165 58.3 77.8683 56.648 79.9059 56.648H89.0844C91.1218 56.648 92.7736 58.2998 92.7736 60.3374V64.1169C92.774 66.1548 91.1223 67.8064 89.0844 67.8064Z" fill="url(#paint12_linear_19_0)"/>
<path d="M76.7805 61.4931L83.0938 67.8064H89.0846C91.122 67.8064 92.7738 66.1547 92.7738 64.117V60.3375C92.7738 59.3793 92.4057 58.5094 91.8066 57.8535L91.8064 57.8533C91.7224 57.7612 91.6337 57.6736 91.5409 57.5903C91.5402 57.5899 91.5398 57.5892 91.5391 57.5887C91.4486 57.5079 91.3543 57.4315 91.2563 57.3599C91.2518 57.3565 91.2476 57.3531 91.2431 57.35C91.1499 57.2824 91.0531 57.2197 90.9538 57.1609C90.9435 57.1548 90.9336 57.1483 90.923 57.1422C90.8298 57.0883 90.7334 57.0393 90.6353 56.9935C90.6178 56.9854 90.6005 56.9762 90.5825 56.9681C90.4911 56.9273 90.397 56.8918 90.3018 56.8583C90.2764 56.8493 90.2514 56.8388 90.2256 56.8304C90.1355 56.801 90.0435 56.7774 89.9505 56.755C89.9186 56.7473 89.8878 56.7375 89.8555 56.7307C89.7629 56.711 89.6681 56.6973 89.5731 56.6847C89.5399 56.6804 89.508 56.6732 89.4745 56.6696C89.3465 56.6562 89.2162 56.6487 89.0846 56.6487H79.9062C77.8687 56.6487 76.2167 58.3005 76.2167 60.3382C76.2169 60.7964 76.431 61.2189 76.7805 61.4931Z" fill="url(#paint13_linear_19_0)"/>
<path d="M86.6294 63.8641L91.865 61.6975C92.4153 61.4697 92.774 60.9331 92.774 60.3377C92.774 58.3003 91.1222 56.6485 89.0848 56.6485H79.9064C77.8689 56.6485 76.2169 58.3003 76.2169 60.3379C76.2169 60.9331 76.5756 61.47 77.1259 61.6977L82.3616 63.8643C83.7276 64.4296 85.2628 64.4296 86.6294 63.8641Z" fill="url(#paint14_linear_19_0)"/>
<path d="M0 80.7643V98.7612C0 102.489 3.02167 105.51 6.74884 105.51H108.251C111.978 105.51 115 102.488 115 98.7612V80.7643H0Z" fill="url(#paint15_linear_19_0)"/>
<path d="M77.117 19.9033C76.7104 19.9033 76.2969 19.8366 75.8913 19.6955C70.8109 17.9301 64.2797 16.9582 57.5 16.9582C50.7204 16.9582 44.1895 17.9303 39.1088 19.6955C37.1621 20.3718 35.0328 19.342 34.3558 17.3938C33.6789 15.4455 34.7094 13.3178 36.6576 12.6408C42.506 10.609 49.9076 9.48975 57.4998 9.48975C65.0921 9.48975 72.4938 10.6087 78.342 12.6408C80.2903 13.3178 81.3205 15.4455 80.6438 17.3938C80.1081 18.9361 78.6627 19.9033 77.117 19.9033Z" fill="url(#paint16_linear_19_0)"/>
<path d="M69.8897 91.998C69.7579 91.7395 69.4919 91.5602 69.1818 91.5602H45.8183C45.3779 91.5602 45.0208 91.9171 45.0208 92.3578V94.6549C45.0208 94.9651 45.1998 95.231 45.4583 95.3629L55.605 105.51H83.4013L69.8897 91.998Z" fill="url(#paint17_linear_19_0)"/>
<path d="M45.0208 92.358V94.6551C45.0208 95.0955 45.3777 95.4527 45.8183 95.4527H69.1818C69.6222 95.4527 69.9793 95.0958 69.9793 94.6551V92.358C69.9793 91.9176 69.6224 91.5604 69.1818 91.5604H45.8183C45.3779 91.5604 45.0208 91.9176 45.0208 92.358Z" fill="url(#paint18_linear_19_0)"/>
<defs>
<linearGradient id="paint0_linear_19_0" x1="7.91906" y1="63.3985" x2="136.502" y2="63.3985" gradientUnits="userSpaceOnUse">
<stop stop-color="#4D4D4D"/>
<stop offset="1" stop-color="#333333"/>
</linearGradient>
<linearGradient id="paint1_linear_19_0" x1="57.4988" y1="88.864" x2="57.4988" y2="49.74" gradientUnits="userSpaceOnUse">
<stop stop-color="#4D4D4D" stop-opacity="0"/>
<stop offset="1"/>
</linearGradient>
<linearGradient id="paint2_linear_19_0" x1="16.1422" y1="31.3213" x2="8.22319" y2="35.5654" gradientUnits="userSpaceOnUse">
<stop stop-color="#4D4D4D"/>
<stop offset="1" stop-color="#333333"/>
</linearGradient>
<linearGradient id="paint3_linear_19_0" x1="25.4183" y1="48.6297" x2="17.4993" y2="52.8738" gradientUnits="userSpaceOnUse">
<stop stop-color="#4D4D4D"/>
<stop offset="1" stop-color="#333333"/>
</linearGradient>
<linearGradient id="paint4_linear_19_0" x1="57.5314" y1="37.1603" x2="49.6123" y2="85.094" gradientUnits="userSpaceOnUse">
<stop stop-color="#4D4D4D"/>
<stop offset="1" stop-color="#333333"/>
</linearGradient>
<linearGradient id="paint5_linear_19_0" x1="49.6706" y1="81.3953" x2="20.7409" y2="52.4655" gradientUnits="userSpaceOnUse">
<stop stop-color="#4D4D4D" stop-opacity="0"/>
<stop offset="1"/>
</linearGradient>
<linearGradient id="paint6_linear_19_0" x1="30.504" y1="58.6219" x2="30.504" y2="65.9615" gradientUnits="userSpaceOnUse">
<stop stop-color="#FCC344"/>
<stop offset="1" stop-color="#D48000"/>
</linearGradient>
<linearGradient id="paint7_linear_19_0" x1="30.504" y1="64.8385" x2="30.504" y2="68.4643" gradientUnits="userSpaceOnUse">
<stop stop-color="#FCC344"/>
<stop offset="1" stop-color="#D48000"/>
</linearGradient>
<linearGradient id="paint8_linear_19_0" x1="30.504" y1="67.6842" x2="30.504" y2="62.1531" gradientUnits="userSpaceOnUse">
<stop stop-color="#D48000" stop-opacity="0"/>
<stop offset="1" stop-color="#D48000"/>
</linearGradient>
<linearGradient id="paint9_linear_19_0" x1="30.504" y1="60.1597" x2="30.504" y2="64.6717" gradientUnits="userSpaceOnUse">
<stop stop-color="#FCC344"/>
<stop offset="1" stop-color="#D48000"/>
</linearGradient>
<linearGradient id="paint10_linear_19_0" x1="103.66" y1="81.3957" x2="74.7306" y2="52.466" gradientUnits="userSpaceOnUse">
<stop stop-color="#4D4D4D" stop-opacity="0"/>
<stop offset="1"/>
</linearGradient>
<linearGradient id="paint11_linear_19_0" x1="84.4935" y1="58.6219" x2="84.4935" y2="65.9615" gradientUnits="userSpaceOnUse">
<stop stop-color="#FCC344"/>
<stop offset="1" stop-color="#D48000"/>
</linearGradient>
<linearGradient id="paint12_linear_19_0" x1="84.4933" y1="64.8385" x2="84.4933" y2="68.4643" gradientUnits="userSpaceOnUse">
<stop stop-color="#FCC344"/>
<stop offset="1" stop-color="#D48000"/>
</linearGradient>
<linearGradient id="paint13_linear_19_0" x1="84.4938" y1="67.6842" x2="84.4938" y2="62.1531" gradientUnits="userSpaceOnUse">
<stop stop-color="#D48000" stop-opacity="0"/>
<stop offset="1" stop-color="#D48000"/>
</linearGradient>
<linearGradient id="paint14_linear_19_0" x1="84.4935" y1="60.1597" x2="84.4935" y2="64.6717" gradientUnits="userSpaceOnUse">
<stop stop-color="#FCC344"/>
<stop offset="1" stop-color="#D48000"/>
</linearGradient>
<linearGradient id="paint15_linear_19_0" x1="57.4988" y1="89.9441" x2="57.4988" y2="109.388" gradientUnits="userSpaceOnUse">
<stop stop-color="#4D4D4D" stop-opacity="0"/>
<stop offset="1"/>
</linearGradient>
<linearGradient id="paint16_linear_19_0" x1="57.4988" y1="12.1309" x2="57.4988" y2="22.2917" gradientUnits="userSpaceOnUse">
<stop stop-color="#FCC344"/>
<stop offset="1" stop-color="#D48000"/>
</linearGradient>
<linearGradient id="paint17_linear_19_0" x1="64.2097" y1="105.061" x2="64.2097" y2="86.0613" gradientUnits="userSpaceOnUse">
<stop stop-color="#1A1A1A" stop-opacity="0"/>
<stop offset="1"/>
</linearGradient>
<linearGradient id="paint18_linear_19_0" x1="57.4988" y1="91.9983" x2="57.4988" y2="95.4933" gradientUnits="userSpaceOnUse">
<stop stop-color="#FCC344"/>
<stop offset="1" stop-color="#D48000"/>
</linearGradient>
</defs>
</svg>
